<svg xmlns="http://www.w3.org/2000/svg" width="81.256" height="32.827" viewBox="0 0 81.256 32.827"><defs><style>.a{fill:#f90;}.a,.b{fill-rule:evenodd;}.b{fill:#999;}</style></defs><g transform="translate(-71 -755.745)"><path class="a" d="M110.5,774.369,104.8,760.8H106.5l4.191,10.133,4.341-10.139h1.646L110.9,774.369ZM96.584,785.2a1.684,1.684,0,1,1-1.684,1.684,1.684,1.684,0,0,1,1.684-1.684Zm0,.691a.993.993,0,1,1-.993.993.993.993,0,0,1,.993-.993Zm-2.591-5.484a2.263,2.263,0,1,1-2.263,2.263,2.263,2.263,0,0,1,2.263-2.263Zm0,.833a1.43,1.43,0,1,1-1.43,1.43,1.43,1.43,0,0,1,1.43-1.43ZM81.35,757.282a6.824,6.824,0,0,1,2.659.657,5.975,5.975,0,0,1,10.312,1.917,6.313,6.313,0,0,1,2.709.457,6.037,6.037,0,0,1,3.583,4.966,5.913,5.913,0,0,1-.627,3.023,6.5,6.5,0,0,1,.638.9,5.893,5.893,0,0,1-3.958,8.61,8.883,8.883,0,0,1-2.639-.031,4.973,4.973,0,0,1-.694,1.12,5.863,5.863,0,0,1-7.623,1.347,6.79,6.79,0,0,1-.976-.74,6.825,6.825,0,0,1-1.659.86,5.909,5.909,0,0,1-7.654-4.025,5.655,5.655,0,0,1-.169-1.862,5.792,5.792,0,0,1-3.139-2.174,5.9,5.9,0,0,1,3.208-9.122,6.279,6.279,0,0,1,.967-3.322,5.708,5.708,0,0,1,5.062-2.585Zm2.331,2.108a.786.786,0,0,0,1.244-.19,4.445,4.445,0,0,1,2.487-1.934,4.654,4.654,0,0,1,4.318,1.019,4.571,4.571,0,0,1,.9,1.143,5.57,5.57,0,0,1,.342.749c.064.171.109.412.171.622a.607.607,0,0,0,.72.525c.218,0,.447-.051.639-.064a4.219,4.219,0,0,1,1.458.155,4.6,4.6,0,0,1,3,2.771,4.18,4.18,0,0,1-.43,3.823.579.579,0,0,0,.035.846,3.466,3.466,0,0,1,.83,1.044,4.661,4.661,0,0,1,.258,3.931,4.557,4.557,0,0,1-4.665,2.693c-.374-.052-1.171-.322-1.4-.3a.562.562,0,0,0-.119.025c-.494.162-.552.756-.849,1.264a4.757,4.757,0,0,1-3.014,2.13,4.68,4.68,0,0,1-4.293-1.5.717.717,0,0,0-.587-.312c-.412.022-.69.441-1.007.678a4.62,4.62,0,0,1-3.763.674,4.531,4.531,0,0,1-3.341-4.141c-.025-.413.107-1.007.066-1.26-.048-.3-.28-.494-.746-.562a3.754,3.754,0,0,1-1.4-.55,4.285,4.285,0,0,1-2.136-4.106,4.405,4.405,0,0,1,2.9-3.886c.369-.141.874-.186,1.123-.3.341-.154.4-.5.322-1a4.33,4.33,0,0,1,.137-1.44,4.419,4.419,0,0,1,2.326-2.822,4.477,4.477,0,0,1,4.471.263Zm34.644,14.686h1.58V760.818h-1.58v13.257Zm32.179-.026h1.581V760.793H150.5v13.257Zm-3.282-9.785,1.209-.933a6.936,6.936,0,0,0-5.38-2.836,7.191,7.191,0,0,0-4.723,1.227,6.193,6.193,0,0,0-2.586,3.525,7.332,7.332,0,0,0-.349,2.41,6.807,6.807,0,0,0,1.746,4.417,7.707,7.707,0,0,0,9.985.842,6.087,6.087,0,0,0,1.307-1.312l-1.209-.933a5.8,5.8,0,0,1-4.094,2.17,5.7,5.7,0,0,1-4.678-1.715,5.072,5.072,0,0,1-1.386-4.057,5.294,5.294,0,0,1,2.05-3.869,4.975,4.975,0,0,1,3.453-1.2,5.806,5.806,0,0,1,4.655,2.263ZM122.606,760.8h.5l8.438,9.713V760.8h1.537v13.257h-.5l-8.352-9.593v9.593H122.6l0-13.253Z" transform="translate(0)"/><path class="b" d="M1042.706,1297.981l-.713,1.652h1.428l-.715-1.652Zm0-1.18,2.042,4.665h-.58l-.583-1.376h-1.753l-.582,1.376h-.58l2.035-4.665Zm4.6,3.27a1.1,1.1,0,0,0-.257-.76.964.964,0,0,0-1.353-.021,1.069,1.069,0,0,0-.242.745,1.149,1.149,0,0,0,.244.785.872.872,0,0,0,.691.276.859.859,0,0,0,.673-.271,1.09,1.09,0,0,0,.244-.753Zm.466-1.41v2.755a2.4,2.4,0,0,1-.062.65.908.908,0,0,1-.2.347,1.221,1.221,0,0,1-.479.315,1.864,1.864,0,0,1-.652.1,1.534,1.534,0,0,1-.994-.291,1.046,1.046,0,0,1-.372-.825h.54v.037a.586.586,0,0,0,.218.489.974.974,0,0,0,.615.172,1.181,1.181,0,0,0,.492-.093.68.68,0,0,0,.312-.278.709.709,0,0,0,.091-.242,2.093,2.093,0,0,0,.028-.4v-.472a1.2,1.2,0,0,1-.426.46,1.11,1.11,0,0,1-.592.161,1.244,1.244,0,0,1-.973-.411,1.814,1.814,0,0,1-.01-2.18,1.219,1.219,0,0,1,.959-.4,1.169,1.169,0,0,1,.613.158,1.093,1.093,0,0,1,.416.464v-.521Zm2.96,1.086a.807.807,0,0,0-.247-.572.872.872,0,0,0-.608-.2.821.821,0,0,0-.853.773Zm.515.389h-2.222v.043a1.024,1.024,0,0,0,.257.727.873.873,0,0,0,.672.277.891.891,0,0,0,.508-.152,1.325,1.325,0,0,0,.4-.458l.364.245a1.4,1.4,0,0,1-1.3.767,1.354,1.354,0,0,1-1.036-.423,1.56,1.56,0,0,1-.4-1.11,1.519,1.519,0,0,1,.392-1.079,1.32,1.32,0,0,1,1.008-.42,1.269,1.269,0,0,1,.985.4,1.556,1.556,0,0,1,.363,1.088v.1Zm-2.286-1.917.6-1.067h.6l.6,1.067h-.377l-.527-.7-.534.7Zm3.01,3.246v-2.8h.469v.433a1.177,1.177,0,0,1,.435-.4,1.263,1.263,0,0,1,.589-.132,1.082,1.082,0,0,1,.775.264.959.959,0,0,1,.279.732v1.909h-.491v-1.652a.945.945,0,0,0-.179-.632.7.7,0,0,0-.553-.207.951.951,0,0,0-.391.079.762.762,0,0,0-.293.222.677.677,0,0,0-.127.251,2.1,2.1,0,0,0-.039.491v1.449Zm5.648-.665v.558a1.48,1.48,0,0,1-.427.17,2.211,2.211,0,0,1-.513.057,1.388,1.388,0,0,1-1.047-.412,1.5,1.5,0,0,1-.4-1.083,1.522,1.522,0,0,1,.411-1.1,1.389,1.389,0,0,1,1.05-.428,2.116,2.116,0,0,1,.455.049,1.9,1.9,0,0,1,.418.143v.516a1.591,1.591,0,0,0-.38-.183,1.3,1.3,0,0,0-.4-.063,1,1,0,0,0-.757.3,1.086,1.086,0,0,0-.285.786.991.991,0,0,0,.286.724.97.97,0,0,0,.719.291,1.219,1.219,0,0,0,.426-.076,1.838,1.838,0,0,0,.438-.243Zm.579-3.491a.35.35,0,0,1,.353-.349.332.332,0,0,1,.247.1.345.345,0,0,1,.1.251.329.329,0,0,1-.1.245.334.334,0,0,1-.248.1.348.348,0,0,1-.353-.353Zm.113,4.156v-2.8h.485v2.8Zm3.642-1.376a1.1,1.1,0,0,0-.26-.765.958.958,0,0,0-1.349-.023,1.066,1.066,0,0,0-.243.745,1.144,1.144,0,0,0,.244.784.874.874,0,0,0,.691.276.863.863,0,0,0,.673-.268,1.078,1.078,0,0,0,.244-.749Zm.465-1.429v2.8h-.465v-.509a1.216,1.216,0,0,1-.431.468,1.1,1.1,0,0,1-.587.161,1.237,1.237,0,0,1-.973-.415,1.592,1.592,0,0,1-.37-1.1,1.611,1.611,0,0,1,.359-1.1,1.21,1.21,0,0,1,.959-.409,1.149,1.149,0,0,1,.611.158,1.135,1.135,0,0,1,.418.47v-.527Zm3.4,2.3h.34a6.069,6.069,0,0,0,1.147-.072,1.25,1.25,0,0,0,.53-.247,1.437,1.437,0,0,0,.419-.593,2.475,2.475,0,0,0,0-1.661,1.467,1.467,0,0,0-.422-.59,1.266,1.266,0,0,0-.537-.252,5.835,5.835,0,0,0-1.14-.075h-.34v3.491Zm-.54.5v-4.487h.862a6.445,6.445,0,0,1,1.346.1,1.833,1.833,0,0,1,.685.323,1.886,1.886,0,0,1,.586.76,2.956,2.956,0,0,1,0,2.129,1.864,1.864,0,0,1-.587.758,1.845,1.845,0,0,1-.669.323,5.181,5.181,0,0,1-1.17.1Zm4.413-4.156a.339.339,0,0,1,.1-.247.343.343,0,0,1,.25-.1.333.333,0,0,1,.247.1.344.344,0,0,1,.1.251.33.33,0,0,1-.1.245.335.335,0,0,1-.248.1.342.342,0,0,1-.25-.1.338.338,0,0,1-.1-.251Zm.113,4.156v-2.8h.484v2.8Zm3.642-1.395a1.1,1.1,0,0,0-.258-.76.964.964,0,0,0-1.353-.021,1.071,1.071,0,0,0-.242.745,1.149,1.149,0,0,0,.244.785.872.872,0,0,0,.691.276.86.86,0,0,0,.673-.271,1.091,1.091,0,0,0,.244-.753Zm.465-1.41v2.755a2.383,2.383,0,0,1-.062.65.906.906,0,0,1-.2.347,1.222,1.222,0,0,1-.479.315,1.866,1.866,0,0,1-.651.1,1.532,1.532,0,0,1-.994-.291,1.047,1.047,0,0,1-.373-.825h.54v.037a.585.585,0,0,0,.218.489.972.972,0,0,0,.615.172,1.18,1.18,0,0,0,.491-.093.678.678,0,0,0,.312-.278.707.707,0,0,0,.091-.242,2.093,2.093,0,0,0,.028-.4v-.472a1.2,1.2,0,0,1-.426.46,1.11,1.11,0,0,1-.592.161,1.244,1.244,0,0,1-.973-.411,1.814,1.814,0,0,1-.01-2.18,1.219,1.219,0,0,1,.959-.4,1.167,1.167,0,0,1,.613.158,1.089,1.089,0,0,1,.417.464v-.521Zm.883-1.352a.35.35,0,0,1,.352-.349.334.334,0,0,1,.247.1.347.347,0,0,1,.1.251.346.346,0,0,1-.349.346.341.341,0,0,1-.25-.1.338.338,0,0,1-.1-.251Zm.113,4.156v-2.8h.484v2.8Zm1.569-2.409h-.515v-.4h.515v-1.131h.491v1.131h.515v.4h-.515v2.409h-.491v-2.409Zm3.7,1.034a1.1,1.1,0,0,0-.26-.765.958.958,0,0,0-1.35-.023,1.066,1.066,0,0,0-.243.745,1.147,1.147,0,0,0,.244.784.874.874,0,0,0,.692.276.863.863,0,0,0,.672-.268,1.076,1.076,0,0,0,.244-.749Zm.465-1.429v2.8h-.465v-.509a1.217,1.217,0,0,1-.431.468,1.1,1.1,0,0,1-.587.161,1.237,1.237,0,0,1-.973-.415,1.592,1.592,0,0,1-.369-1.1,1.612,1.612,0,0,1,.358-1.1,1.211,1.211,0,0,1,.96-.409,1.149,1.149,0,0,1,.611.158,1.134,1.134,0,0,1,.418.47v-.527Zm.983,2.8v-4.75h.491v4.75Z" transform="translate(-929.857 -518.759)"/></g></svg>