<svg xmlns="http://www.w3.org/2000/svg" width="25.286" height="17.78" viewBox="0 0 25.286 17.78"><defs><style>.a{fill:#fff;}</style></defs><path class="a" d="M25.808,7.282a3.177,3.177,0,0,0-2.236-2.25C21.6,4.5,13.693,4.5,13.693,4.5s-7.907,0-9.879.532a3.177,3.177,0,0,0-2.236,2.25,33.331,33.331,0,0,0-.528,6.126,33.331,33.331,0,0,0,.528,6.126,3.13,3.13,0,0,0,2.236,2.214c1.972.532,9.879.532,9.879.532s7.907,0,9.879-.532a3.13,3.13,0,0,0,2.236-2.214,33.331,33.331,0,0,0,.528-6.126,33.331,33.331,0,0,0-.528-6.126Zm-14.7,9.886V9.648l6.609,3.76-6.609,3.76Z" transform="translate(-1.05 -4.5)"/></svg>