<svg xmlns="http://www.w3.org/2000/svg" width="20.754" height="20.75" viewBox="0 0 20.754 20.75"><defs><style>.a{fill:#fff;}</style></defs><path class="a" d="M10.374,7.293a5.32,5.32,0,1,0,5.32,5.32A5.312,5.312,0,0,0,10.374,7.293Zm0,8.779a3.459,3.459,0,1,1,3.459-3.459,3.465,3.465,0,0,1-3.459,3.459Zm6.778-9a1.241,1.241,0,1,1-1.241-1.241A1.238,1.238,0,0,1,17.153,7.075Zm3.523,1.259A6.141,6.141,0,0,0,19,3.987a6.181,6.181,0,0,0-4.348-1.676c-1.713-.1-6.848-.1-8.561,0A6.172,6.172,0,0,0,1.744,3.982,6.161,6.161,0,0,0,.068,8.33c-.1,1.713-.1,6.848,0,8.561a6.141,6.141,0,0,0,1.676,4.348,6.189,6.189,0,0,0,4.348,1.676c1.713.1,6.848.1,8.561,0A6.141,6.141,0,0,0,19,21.238a6.181,6.181,0,0,0,1.676-4.348c.1-1.713.1-6.843,0-8.556ZM18.463,18.729A3.5,3.5,0,0,1,16.491,20.7c-1.366.542-4.607.417-6.116.417s-4.755.12-6.116-.417a3.5,3.5,0,0,1-1.972-1.972c-.542-1.366-.417-4.607-.417-6.116s-.12-4.755.417-6.116A3.5,3.5,0,0,1,4.258,4.524c1.366-.542,4.607-.417,6.116-.417s4.755-.12,6.116.417A3.5,3.5,0,0,1,18.463,6.5c.542,1.366.417,4.607.417,6.116S19,17.368,18.463,18.729Z" transform="translate(0.005 -2.238)"/></svg>