<svg xmlns="http://www.w3.org/2000/svg" width="32.849" height="18.328" viewBox="0 0 32.849 18.328"><defs><style>.a{fill:#fff;}</style></defs><path class="a" d="M20.143,26.284h5.988V24.471H20.14v1.814Zm-13.427,0H12.7V24.471H6.715v1.814H6.72ZM0,26.284H5.988V24.471H0v1.814Zm13.427,0h5.995V24.471H13.427Zm13.434,0h5.988V24.471H26.861Zm0-2.36h5.988V22.118H26.861v1.82Zm-13.432,0h6.009V22.118h-6.01v1.82ZM0,23.925H6V22.118H0v1.82Zm6.72,0h5.995V22.118h-6v1.834l0-.014Zm13.454,0h5.995V22.118H20.149v1.834l.023-.014Zm0-2.354h5.995V19.764H20.149v1.82h.023Zm-13.42,0h5.968V19.764h-6v1.82h.022Zm-6.715,0H6.009V19.764H0v1.82H.022Zm13.427,0h5.995V19.764H13.441v1.82h.022Zm13.448,0h5.933V19.764H26.861v1.82H26.9Zm0-2.354h5.933V17.395H26.861v1.815H26.9Zm-13.427,0H19.46V17.395H13.438v1.815h.045Zm-13.427,0H6.022V17.395H0v1.815H.041Zm20.161,0h5.995V17.395H20.154v1.815h.06Zm0-2.354h5.995v-1.82H20.154v1.807h.06Zm-20.161,0H6.022V15.055H0v1.807H.041Zm13.427,0h5.995V15.055H13.427v1.807h.044Zm13.427,0h5.933v-1.82H26.861v1.818l.037,0ZM13.427,14.493h5.995V12.678H13.427Zm13.434,0h5.988V12.677H26.861ZM13.427,12.132h5.995V10.316H13.427v1.816Zm13.434,0h5.988V10.316H26.861v1.816Zm0-2.361h5.988V7.956H26.861Z" transform="translate(0 -7.956)"/></svg>