<svg xmlns="http://www.w3.org/2000/svg" width="17.729" height="12.274" viewBox="0 0 17.729 12.274"><defs><style>.a{fill:#fff;}</style></defs><g transform="translate(-3.375 -7.875)"><path class="a" d="M20.96,10.34l-4.586,4.671a.082.082,0,0,0,0,.119l3.209,3.418a.553.553,0,0,1,0,.784.556.556,0,0,1-.784,0l-3.2-3.405a.087.087,0,0,0-.124,0l-.78.793a3.431,3.431,0,0,1-2.446,1.031,3.5,3.5,0,0,1-2.5-1.061L9,15.927a.087.087,0,0,0-.124,0l-3.2,3.405a.556.556,0,0,1-.784,0,.553.553,0,0,1,0-.784L8.11,15.13a.091.091,0,0,0,0-.119L3.52,10.34a.084.084,0,0,0-.145.06v9.346A1.368,1.368,0,0,0,4.739,21.11h15A1.368,1.368,0,0,0,21.1,19.746V10.4A.085.085,0,0,0,20.96,10.34Z" transform="translate(0 -0.961)"/><path class="a" d="M12.575,15.679a2.317,2.317,0,0,0,1.666-.7l6.687-6.806a1.339,1.339,0,0,0-.844-.3H5.07a1.331,1.331,0,0,0-.844.3l6.687,6.806A2.317,2.317,0,0,0,12.575,15.679Z" transform="translate(-0.335)"/></g></svg>