<svg xmlns="http://www.w3.org/2000/svg" width="23.706" height="19.254" viewBox="0 0 23.706 19.254"><defs><style>.a{fill:#fff;}</style></defs><path class="a" d="M21.269,8.179c.015.211.015.421.015.632A13.729,13.729,0,0,1,7.461,22.634,13.73,13.73,0,0,1,0,20.453a10.051,10.051,0,0,0,1.173.06,9.73,9.73,0,0,0,6.032-2.076,4.867,4.867,0,0,1-4.543-3.369,6.127,6.127,0,0,0,.918.075,5.139,5.139,0,0,0,1.279-.165,4.859,4.859,0,0,1-3.9-4.768v-.06a4.893,4.893,0,0,0,2.2.617,4.866,4.866,0,0,1-1.5-6.5A13.81,13.81,0,0,0,11.672,9.352a5.485,5.485,0,0,1-.12-1.113A4.863,4.863,0,0,1,19.96,4.915a9.566,9.566,0,0,0,3.084-1.173,4.845,4.845,0,0,1-2.136,2.677,9.74,9.74,0,0,0,2.8-.752,10.444,10.444,0,0,1-2.437,2.512Z" transform="translate(0 -3.381)"/></svg>