<svg xmlns="http://www.w3.org/2000/svg" width="22.965" height="22.965" viewBox="0 0 22.965 22.965"><defs><style>.a{fill:#fff;}</style></defs><path class="a" d="M11.483.563A11.483,11.483,0,1,0,22.965,12.045,11.487,11.487,0,0,0,11.483.563Zm4.662,16.9a.883.883,0,0,1-.5-.167C12.76,15.55,9.4,15.476,6.079,16.157a2.99,2.99,0,0,1-.551.12.721.721,0,0,1-.732-.732.734.734,0,0,1,.63-.778C9.218,13.93,13.094,14,16.4,15.981a.783.783,0,0,1,.449.764.7.7,0,0,1-.7.713Zm1.245-3.037a1.143,1.143,0,0,1-.569-.194A15,15,0,0,0,5.774,12.865a1.907,1.907,0,0,1-.551.12.9.9,0,0,1-.9-.9.911.911,0,0,1,.718-.958A15.574,15.574,0,0,1,9.57,10.5a16.208,16.208,0,0,1,8.2,2.107.965.965,0,0,1,.523.912.9.9,0,0,1-.9.9Zm1.435-3.528a1.065,1.065,0,0,1-.6-.181c-3.3-1.968-9.191-2.44-13.006-1.375a2.2,2.2,0,0,1-.6.12A1.069,1.069,0,0,1,3.547,8.364a1.094,1.094,0,0,1,.806-1.107,19.405,19.405,0,0,1,5.44-.7A19.555,19.555,0,0,1,19.3,8.767a1.087,1.087,0,0,1,.6,1.046,1.073,1.073,0,0,1-1.074,1.079Z" transform="translate(0 -0.563)"/></svg>