<svg xmlns="http://www.w3.org/2000/svg" width="21.23" height="21.228" viewBox="0 0 21.23 21.228"><defs><style>.a{fill:#fff;}</style></defs><g transform="translate(0)"><path class="a" d="M21.228,5.418a8.164,8.164,0,0,0-.212-1.937A4.349,4.349,0,0,0,19.087.789a4.442,4.442,0,0,0-1.66-.643A9.285,9.285,0,0,0,16.044.013C16.008.01,15.97,0,15.934,0H5.3C5.164.01,5.03.017,4.9.024a6.169,6.169,0,0,0-1.94.355A4.419,4.419,0,0,0,.421,2.838,4.972,4.972,0,0,0,.1,4.084,9.385,9.385,0,0,0,.012,5.128c0,.028-.006.055-.009.082V16.022c.009.124.015.25.024.375a5.821,5.821,0,0,0,.44,2.1,4.406,4.406,0,0,0,2.861,2.479,5.814,5.814,0,0,0,1.144.2c.491.047.982.053,1.475.053H15.7a11.058,11.058,0,0,0,1.389-.088,4.722,4.722,0,0,0,2.031-.716,4.464,4.464,0,0,0,1.663-1.953,4.9,4.9,0,0,0,.327-1.171,10.811,10.811,0,0,0,.121-1.8q0-5.042,0-10.078ZM15.546,8.947V14a2.383,2.383,0,0,1-.216,1.067A1.873,1.873,0,0,1,14.1,16.075a4.082,4.082,0,0,1-.946.153,1.655,1.655,0,0,1-.8-3.147,3.773,3.773,0,0,1,.9-.287c.334-.073.67-.135,1-.212a.546.546,0,0,0,.451-.456.8.8,0,0,0,.018-.171q0-2.408,0-4.815a.641.641,0,0,0-.023-.164.254.254,0,0,0-.269-.207,3.2,3.2,0,0,0-.42.058q-1.008.2-2.017.4L9.94,7.647l-1.215.246c-.014,0-.028.009-.042.011a.4.4,0,0,0-.345.433c0,.037,0,.076,0,.115q0,3.452,0,6.9a2.712,2.712,0,0,1-.19,1.085,1.884,1.884,0,0,1-1.268,1.091,3.93,3.93,0,0,1-.951.152,1.628,1.628,0,0,1-1.7-1.366,1.65,1.65,0,0,1,1.021-1.835,5.217,5.217,0,0,1,.98-.274c.254-.053.509-.1.761-.157a.615.615,0,0,0,.531-.632v-.133q0-3.927,0-7.857A1.407,1.407,0,0,1,7.558,5.1a.614.614,0,0,1,.483-.458c.226-.058.456-.1.685-.146.648-.133,1.3-.262,1.946-.393L12.68,3.7c.593-.119,1.185-.239,1.778-.356a5.37,5.37,0,0,1,.587-.094.436.436,0,0,1,.49.426,1.818,1.818,0,0,1,.011.2q0,2.534,0,5.07Z" transform="translate(-0.003 -0.002)"/></g></svg>